<?xml version="1.0" encoding="UTF-8" standalone="no"?>
<!-- Created with Keyshape -->
<svg xmlns="http://www.w3.org/2000/svg" viewBox="0 0 200 100" text-rendering="geometricPrecision" shape-rendering="geometricPrecision" style="white-space: pre;">
    <path d="M-0.1,1.0C-3.9,11.3,13.1,25.0,-10.8,31.6C-35.7,36.4,-24.8,11.6,-36.0,9.1C-56.6,0.8,-52.1,31.7,-65.6,30.9C-76.0,31.4,-69.9,15.0,-81.1,14.3C-100.3,9.4,-95.8,30.1,-104.3,31.2C-112.7,32.3,-114.2,25.1,-122.2,23.4C-130.2,21.8,-137.4,38.3,-149.3,22.2C-161.2,1.3,-137.9,5.2,-139.3,-4.8C-140.0,-10.3,-149.9,-7.7,-155.2,-9.6C-161.7,-12.0,-164.8,-19.4,-158.0,-29.7C-148.6,-40.5,-130.3,-40.0,-123.8,-27.2C-120.7,-19.3,-106.2,-8.4,-89.8,-23.4C-79.2,-31.2,-81.6,-46.6,-59.5,-43.8C-46.9,-42.7,-39.3,-17.0,-28.6,-15.5C-16.8,-13.9,-13.1,-32.1,-4.1,-28.3C9.8,-21.4,0.8,-9.2,-0.1,1.0Z" stroke="none" fill="none" transform="translate(178,54)"/>
</svg>
