<?xml version="1.0" encoding="UTF-8" standalone="no"?>
<!-- Created with Keyshape -->
<svg xmlns="http://www.w3.org/2000/svg" xmlns:xlink="http://www.w3.org/1999/xlink" viewBox="0 0 200 100" text-rendering="geometricPrecision" shape-rendering="geometricPrecision" style="white-space: pre;">
    <path d="M0,0C-13.0,-3.8,-18.6,-6.0,-36.9,-6.0C-41.4,-6.7,-47.9,-1.5,-55.6,-1.5C-58.7,-1.5,-60.3,2.4,-65.5,3.6C-70.9,4.8,-72.8,9.5,-75.6,11.0C-84.8,12.6,-98.5,8.7,-107.9,16.4C-120.0,26.3,-115.7,40.7,-111.3,54.3C-104.0,67.9,-90.0,56.0,-77.8,56.0C-70.6,59.2,-65.5,66.8,-54.2,65C-39.7,59.1,-28.0,47.6,-9.2,50.6C4.1,55.4,16.6,63.6,30.0,63.6C42.6,58.5,46.8,47.9,39.5,41.2C30.7,32.8,30.0,34.8,19.9,30.2C15.7,26.6,15.0,20.7,15.0,16.4C16.3,5.9,14.1,3.2,0,0Z" stroke="none" fill="none" stroke-width="0" transform="translate(131.8,25.4)"/>
</svg>
