<svg xmlns="http://www.w3.org/2000/svg" xmlns:xlink="http://www.w3.org/1999/xlink" viewBox="0 0 200 100"><path d="M83.9 12.7c13.9 2.8 14.6 9.8 21.2 11.8c4.6 1.3 4.9 27.8 12.8 28.8c6.4 .9 13.8-3.6 18.9-5.7c4.2-1.7-9.7-21.7-2.4-24.1c8.6-2.9 36.5-4.5 36.9-5.4c9.4 .1 14.2 11 14.1 14c-5.4 1.3-6.7 3.5-7.7 6.1c-1 2 1.2 19.2 .8 21.9c-0.2 7.3-33.4 34.9-34.7 35.2c-0.7 .4-6.7-6.7-16.5-11.9c-6.6-3.6-13.6 4.1-24.9 .1c-13-4.6-26.4-17.5-27.1-15.5c0 0-35.9 3.2-38.4 1.3c-2.4-1.8-2.6-51.9-1.8-53.6c1.3-2.6 32.6-2 48.8-3Z" stroke="none" fill="none"/></svg>