<?xml version="1.0" encoding="UTF-8" standalone="no"?>
<!-- Created with Keyshape -->
<svg xmlns="http://www.w3.org/2000/svg" viewBox="0 0 86 58" text-rendering="geometricPrecision" shape-rendering="geometricPrecision" style="white-space: pre;">
    <g transform="translate(42.875,28.5) translate(-42.125,-27.5)">
        <path d="M0,0L42.25,-15.25L84.25,0L79.7817,1.88839L79.65,18.15C79.65,18.15,81.65,19.75,81.75,21.45C81.85,23.15,79.65,23.85,79.65,23.85C79.65,23.85,83.0106,29.6995,82.05,31.65C81.0894,33.6005,75.9818,33.4529,74.55,31.85C73.1182,30.2471,76.95,23.85,76.95,23.85C76.95,23.85,74.55,22.85,74.85,21.15C75.15,19.45,77.15,18.15,77.15,18.15L77.3378,2.9212L42.35,17.45Z" fill="#000000" stroke="none" transform="translate(0,14.95)"/>
        <path d="M-0.5,0L24.5,10L49.5,0L49.5,20C49.5,20,37.1,21.4,31.9,23.75C26.7,26.1,24.5,29,24.5,29C24.5,29,21.8,26.25,15.95,24C10.1,21.75,-0.5,20,-0.5,20" fill="#000000" stroke="none" transform="translate(17.75,26)"/>
    </g>
    <path d="M0,0L78,-58L86,-58L10,0" fill="#ff0000" stroke="none" transform="translate(0,58)"/>
</svg>
